<?xml version="1.0" encoding="utf-8"?>

<svg height="800px" width="800px" version="1.1" id="_x32_" xmlns="http://www.w3.org/2000/svg" xmlns:xlink="http://www.w3.org/1999/xlink" 
	 viewBox="0 0 512 512"  xml:space="preserve">
<style type="text/css">
	.st0{fill:#000000;}
</style>
<g>
	<path class="st0" d="M304.872,377.116v-53.41c0.007,0,0.011,0.008,0.018,0.015v-3.762c0.808-0.41,1.683-0.812,2.492-1.147
		c0.808-0.402,1.68-0.805,2.487-1.214c10.425-4.968,21.73-10.354,31.409-16.477c2.965-1.877,5.725-3.896,8.213-6.116
		c2.082-1.751,3.967-3.635,5.714-5.587c12.377-13.855,16.343-31.212,7.87-45.059c-4.711-7.665-11.836-12.112-19.371-13.52
		c-4.302-0.946-8.741-0.812-13.05,0.336c-0.872,0.201-1.814,0.469-2.686,0.804c-5.583,1.952-10.563,5.513-14.131,10.63
		c0.54-6.19-0.939-12.18-3.967-17.222c-0.465-0.804-0.938-1.616-1.542-2.354c-1.013-1.475-2.156-2.756-3.438-3.963v98.127
		c-0.008-0.008-0.012-0.014-0.018-0.014v-98.127c0.007,0.008,0.011,0.008,0.018,0.014v-7.33c-0.008,0-0.012,0.008-0.018,0.008
		V35.636C304.872,15.956,288.931,0,269.24,0H49.504C29.808,0,13.868,15.956,13.868,35.636v341.48
		c0,19.68,15.94,35.629,35.636,35.636H269.24C288.931,412.745,304.872,396.797,304.872,377.116z M31.354,377.116V35.636
		c0.018-10.027,8.123-18.131,18.15-18.153H269.24c10.022,0.022,18.127,8.126,18.15,18.153v341.48
		c-0.023,10.026-8.127,18.13-18.15,18.146H49.504C39.477,395.247,31.372,387.142,31.354,377.116z"/>
	<path class="st0" d="M160.521,136.586c-0.343-0.998-0.644-1.542-1.158-1.542c-0.51,0-0.801,0.544-1.14,1.542
		c-5.848,17.296-36.497,59.808-47.804,68.941l-0.54,0.849l0.54,0.842c11.307,9.148,41.957,51.652,47.804,68.956
		c0.338,0.998,0.629,1.534,1.14,1.534c0.514,0,0.815-0.536,1.158-1.534c5.832-17.304,36.492-59.808,47.804-68.956l0.537-0.842
		l-0.537-0.849C197.013,196.395,166.353,153.882,160.521,136.586z"/>
	<path class="st0" d="M77.474,42.698l-0.503-0.67l-0.495,0.67C73.974,50.14,60.774,68.45,55.898,72.368l-0.23,0.373l0.23,0.364
		c4.876,3.918,18.076,22.235,20.578,29.677l0.495,0.663l0.503-0.663c2.504-7.442,15.706-25.758,20.574-29.677l0.235-0.364
		l-0.235-0.373C93.181,68.45,79.978,50.14,77.474,42.698z"/>
	<path class="st0" d="M242.263,317.718l-0.5-0.664l-0.499,0.664c-2.503,7.449-15.699,25.758-20.571,29.677l-0.238,0.365l0.238,0.373
		c4.872,3.918,18.068,22.228,20.571,29.669l0.499,0.671l0.5-0.671c2.503-7.442,15.706-25.752,20.578-29.669l0.231-0.373
		l-0.231-0.365C257.969,343.476,244.766,325.166,242.263,317.718z"/>
	<path class="st0" d="M474.659,121.941L304.891,60.196v18.563l163.782,59.6c1.885,0.67,3.497,1.608,4.98,2.823
		c0.738,0.536,1.479,1.207,2.082,1.877c4.506,4.783,6.186,11.911,3.836,18.571L362.74,482.528
		c-3.43,9.408-13.859,14.257-23.271,10.824L132.978,418.22c-3.092-1.14-5.717-3.024-7.669-5.445h-19.773
		c3.363,9.818,10.965,18.027,21.456,21.863l206.485,75.19c13.118,4.775,27.107,1.416,36.593-7.531
		c1.349-1.214,2.556-2.556,3.699-4.038c2.22-2.89,4.105-6.123,5.378-9.75l116.831-320.898
		C502.704,149.115,493.155,128.668,474.659,121.941z"/>
	<path class="st0" d="M412.831,205.639l0.466-0.149c4.723-4.574,17.669-8.939,27.122-14.943c10.224-6.473,14.876-17.498,9.844-25.73
		c-5.274-8.574-17.118-8.216-22.291-0.782c0.808-9.021-8.041-16.91-17.592-13.729c-9.143,3.069-12.67,14.496-8.998,26.035
		c3.39,10.674,10.504,22.34,11.174,28.88L412.831,205.639z"/>
</g>
</svg>